<mxfile host="app.diagrams.net" modified="2024-07-18T07:50:59.706Z" agent="Mozilla/5.0 (Windows NT 10.0; Win64; x64) AppleWebKit/537.36 (KHTML, like Gecko) Chrome/126.0.0.0 Safari/537.36 Edg/126.0.0.0" etag="3pH6OQgcvDu81BXtYBgG" version="24.7.1" type="github">
  <diagram name="第 1 页" id="3CxwXjOHCPLeqvEjzmGa">
    <mxGraphModel dx="1293" dy="712" grid="1" gridSize="10" guides="1" tooltips="1" connect="1" arrows="1" fold="1" page="1" pageScale="1" pageWidth="827" pageHeight="1169" math="0" shadow="0">
      <root>
        <mxCell id="0" />
        <mxCell id="1" parent="0" />
        <mxCell id="FuQU2wga5dpiZse5bhvv-11" value="" style="rounded=0;whiteSpace=wrap;html=1;" vertex="1" parent="1">
          <mxGeometry x="164" y="420" width="500" height="140" as="geometry" />
        </mxCell>
        <mxCell id="FuQU2wga5dpiZse5bhvv-1" value="A内存" style="rounded=0;whiteSpace=wrap;html=1;" vertex="1" parent="1">
          <mxGeometry x="225.1" y="450" width="120" height="60" as="geometry" />
        </mxCell>
        <mxCell id="FuQU2wga5dpiZse5bhvv-2" value="" style="image;aspect=fixed;perimeter=ellipsePerimeter;html=1;align=center;shadow=0;dashed=0;spacingTop=3;image=img/lib/active_directory/database_server.svg;" vertex="1" parent="1">
          <mxGeometry x="254.9" y="270" width="90.2" height="110" as="geometry" />
        </mxCell>
        <mxCell id="FuQU2wga5dpiZse5bhvv-3" value="" style="image;aspect=fixed;perimeter=ellipsePerimeter;html=1;align=center;shadow=0;dashed=0;spacingTop=3;image=img/lib/active_directory/database_server.svg;" vertex="1" parent="1">
          <mxGeometry x="500" y="280" width="90.2" height="110" as="geometry" />
        </mxCell>
        <mxCell id="FuQU2wga5dpiZse5bhvv-5" value="B内存" style="rounded=0;whiteSpace=wrap;html=1;" vertex="1" parent="1">
          <mxGeometry x="459.99999999999994" y="450" width="120" height="60" as="geometry" />
        </mxCell>
        <mxCell id="FuQU2wga5dpiZse5bhvv-7" style="edgeStyle=orthogonalEdgeStyle;rounded=0;orthogonalLoop=1;jettySize=auto;html=1;entryX=0.25;entryY=0;entryDx=0;entryDy=0;" edge="1" parent="1" source="FuQU2wga5dpiZse5bhvv-6" target="FuQU2wga5dpiZse5bhvv-2">
          <mxGeometry relative="1" as="geometry" />
        </mxCell>
        <mxCell id="FuQU2wga5dpiZse5bhvv-6" value="Actor" style="shape=umlActor;verticalLabelPosition=bottom;verticalAlign=top;html=1;outlineConnect=0;" vertex="1" parent="1">
          <mxGeometry x="240" y="30" width="30" height="70" as="geometry" />
        </mxCell>
        <mxCell id="FuQU2wga5dpiZse5bhvv-9" style="edgeStyle=orthogonalEdgeStyle;rounded=0;orthogonalLoop=1;jettySize=auto;html=1;" edge="1" parent="1" source="FuQU2wga5dpiZse5bhvv-8" target="FuQU2wga5dpiZse5bhvv-3">
          <mxGeometry relative="1" as="geometry" />
        </mxCell>
        <mxCell id="FuQU2wga5dpiZse5bhvv-8" value="Actor" style="shape=umlActor;verticalLabelPosition=bottom;verticalAlign=top;html=1;outlineConnect=0;" vertex="1" parent="1">
          <mxGeometry x="520" y="20" width="30" height="70" as="geometry" />
        </mxCell>
        <mxCell id="FuQU2wga5dpiZse5bhvv-13" value="redis" style="rounded=0;whiteSpace=wrap;html=1;" vertex="1" parent="1">
          <mxGeometry x="190" y="580" width="120" height="60" as="geometry" />
        </mxCell>
      </root>
    </mxGraphModel>
  </diagram>
</mxfile>
